# xmcd
#
# Track frame offsets:
#	150
#	12189
#	29599
#	42207
#	54977
#	68111
#	82541
#	97468
#	112866
#	128412
#	144198
#	160033
#	175875
#	192002
#	208673
#	225856
#	243521
#	261305
#	279547
#	296375
#
# Disc length: 4216 seconds
#
# Revision: 0
# Processed by: cddbd v1.5.2PL0 Copyright (c) Steve Scherf et al.
# Submitted via: EasyCDDAExtractor 11.0.0.1
#
DISCID=04107614
DTITLE=Eduardo Costa - No Boteco III
DYEAR=2007
DGENRE=Sertanejo
TTITLE0=Na Saideira
TTITLE1=Linda Demais
TTITLE2=Tranque a Porta e Me Beija
TTITLE3=Sonho Por Sonho
TTITLE4=Entre Ele e Eu
TTITLE5=Depois do Adeus
TTITLE6=Ta No Meu Coração
TTITLE7=É Isso Ai
TTITLE8=No Momento em Que Te Amei
TTITLE9=To Com Saudades de Você
TTITLE10=Pele, Alma e Coração
TTITLE11=A Vida Tem Dessas Coisas
TTITLE12=Não Tem Adeus Quando Se Ama
TTITLE13=Que Sofrimento É Esse
TTITLE14=Bandida
TTITLE15=Me Apaixonei
TTITLE16=Por Onde Andei
TTITLE17=Pedindo Amor
TTITLE18=Abandonado
TTITLE19=Amor Perfeito
EXTD=
EXTT0=
EXTT1=
EXTT2=
EXTT3=
EXTT4=
EXTT5=
EXTT6=
EXTT7=
EXTT8=
EXTT9=
EXTT10=
EXTT11=
EXTT12=
EXTT13=
EXTT14=
EXTT15=
EXTT16=
EXTT17=
EXTT18=
EXTT19=
PLAYORDER=
